<svg width="1200" height="800" viewBox="0 0 1200 800" xmlns="http://www.w3.org/2000/svg" font-family="Arial, sans-serif">
<defs><linearGradient id="logoGrad" x1="0" y1="0" x2="1" y2="1"><stop offset="0" stop-color="#6366F1"/><stop offset="1" stop-color="#1D4ED8"/></linearGradient></defs>
<rect width="1200" height="800" fill="#F8FAFC"/>
<rect x="0" y="0" width="1200" height="84" fill="#FFFFFF"/>
<line x1="0" y1="84" x2="1200" y2="84" stroke="#E2E8F0" stroke-width="2"/>

  <g transform="translate(20,17) scale(0.048828)">
    <rect width="1024" height="1024" rx="230" fill="url(#logoGrad)"/>
    <rect x="360" y="300" width="80" height="424" rx="16" fill="#FFFFFF"/>
    <path d="M440,512 L660,300 L560,300 L440,430 Z" fill="#FFFFFF"/>
    <path d="M440,512 L660,724 L560,724 L440,590 Z" fill="#FFFFFF"/>
    <circle cx="700" cy="512" r="34" fill="#FBBF24"/>
  </g>
<text x="82" y="48" fill="#0F172A" font-size="24" font-weight="bold">Kasirin</text>
<text x="1176" y="36" text-anchor="end" fill="#0F172A" font-size="16" font-weight="bold">Admin: Sarah</text>
<text x="1176" y="58" text-anchor="end" fill="#94A3B8" font-size="14">22 Jul 2026, 14:35</text>
<text x="24" y="132" fill="#0F172A" font-size="28" font-weight="bold">Backup &amp; Restore Database</text>
<text x="24" y="156" fill="#94A3B8" font-size="15">Amankan data transaksi dan produk kamu secara berkala</text>
<rect x="24" y="182" width="560" height="594" rx="20" fill="#FFFFFF" stroke="#E2E8F0" stroke-width="2"/>
<text x="48" y="222" fill="#0F172A" font-size="18" font-weight="bold">Backup Database</text>
<circle cx="88" cy="280" r="32" fill="#EEF2FF"/>
<ellipse cx="88" cy="267.0" rx="18.2" ry="6.5" fill="none" stroke="#4F46E5" stroke-width="2.2"/><path d="M69.8,267.0 L69.8,290.4 Q69.8,296.9 88,296.9 Q106.2,296.9 106.2,290.4 L106.2,267.0" fill="none" stroke="#4F46E5" stroke-width="2.2"/><path d="M69.8,278.7 Q69.8,285.2 88,285.2 Q106.2,285.2 106.2,278.7" fill="none" stroke="#4F46E5" stroke-width="2.2"/>
<text x="136" y="266" fill="#94A3B8" font-size="13">Backup Terakhir</text>
<text x="136" y="290" fill="#0F172A" font-size="17" font-weight="bold">Hari ini, 14:00 &#183; 4.2 MB</text>
<circle cx="140" cy="304" r="5" fill="#16A34A"/>
<text x="152" y="309" fill="#16A34A" font-size="13" font-weight="bold">Berhasil</text>
<rect x="48" y="336" width="512" height="60" rx="16" fill="#4F46E5"/>
<text x="304.0" y="373" text-anchor="middle" fill="#FFFFFF" font-size="17" font-weight="bold">Backup Sekarang</text>
<line x1="48" y1="424" x2="560" y2="424" stroke="#F1F5F9" stroke-width="2"/>
<text x="48" y="464" fill="#334155" font-size="15" font-weight="bold">Backup Otomatis</text>
<rect x="512" y="444" width="48" height="26" rx="13" fill="#4F46E5"/><circle cx="547" cy="457" r="10" fill="#FFFFFF"/>
<text x="48" y="490" fill="#94A3B8" font-size="13">Setiap hari pukul 23:00</text>
<text x="48" y="534" fill="#334155" font-size="15" font-weight="bold">Lokasi Penyimpanan</text>
<rect x="48" y="548" width="180" height="40" rx="20" fill="#4F46E5"/>
<text x="138" y="573" text-anchor="middle" fill="#FFFFFF" font-size="13" font-weight="bold">Penyimpanan Lokal</text>
<rect x="240" y="548" width="140" height="40" rx="20" fill="#FFFFFF" stroke="#E2E8F0" stroke-width="2"/>
<text x="310" y="573" text-anchor="middle" fill="#334155" font-size="13" font-weight="bold">Google Drive</text>
<rect x="608" y="182" width="568" height="594" rx="20" fill="#FFFFFF" stroke="#E2E8F0" stroke-width="2"/>
<text x="632" y="222" fill="#0F172A" font-size="18" font-weight="bold">Pulihkan dari Backup</text>
<rect x="632" y="250" width="520" height="66" rx="14" fill="#FAFAFB"/>
<text x="648" y="278" fill="#0F172A" font-size="14" font-weight="bold">22 Jul 2026, 14:00</text>
<text x="648" y="298" fill="#94A3B8" font-size="12">4.2 MB</text>
<rect x="788" y="287" width="86" height="26" rx="13" fill="#DBEAFE"/>
<text x="831.0" y="305" text-anchor="middle" fill="#1D4ED8" font-size="12" font-weight="bold">Otomatis</text>
<rect x="1036" y="265" width="116" height="36" rx="10" fill="none" stroke="#4F46E5" stroke-width="2"/>
<text x="1094" y="288" text-anchor="middle" fill="#4F46E5" font-size="13" font-weight="bold">Pulihkan</text>
<rect x="632" y="328" width="520" height="66" rx="14" fill="#FAFAFB"/>
<text x="648" y="356" fill="#0F172A" font-size="14" font-weight="bold">21 Jul 2026, 23:00</text>
<text x="648" y="376" fill="#94A3B8" font-size="12">4.1 MB</text>
<rect x="788" y="365" width="86" height="26" rx="13" fill="#DBEAFE"/>
<text x="831.0" y="383" text-anchor="middle" fill="#1D4ED8" font-size="12" font-weight="bold">Otomatis</text>
<rect x="1036" y="343" width="116" height="36" rx="10" fill="none" stroke="#4F46E5" stroke-width="2"/>
<text x="1094" y="366" text-anchor="middle" fill="#4F46E5" font-size="13" font-weight="bold">Pulihkan</text>
<rect x="632" y="406" width="520" height="66" rx="14" fill="#FAFAFB"/>
<text x="648" y="434" fill="#0F172A" font-size="14" font-weight="bold">20 Jul 2026, 23:00</text>
<text x="648" y="454" fill="#94A3B8" font-size="12">4.0 MB</text>
<rect x="788" y="443" width="86" height="26" rx="13" fill="#DBEAFE"/>
<text x="831.0" y="461" text-anchor="middle" fill="#1D4ED8" font-size="12" font-weight="bold">Otomatis</text>
<rect x="1036" y="421" width="116" height="36" rx="10" fill="none" stroke="#4F46E5" stroke-width="2"/>
<text x="1094" y="444" text-anchor="middle" fill="#4F46E5" font-size="13" font-weight="bold">Pulihkan</text>
<rect x="632" y="484" width="520" height="66" rx="14" fill="#FAFAFB"/>
<text x="648" y="512" fill="#0F172A" font-size="14" font-weight="bold">19 Jul 2026, 10:15</text>
<text x="648" y="532" fill="#94A3B8" font-size="12">3.9 MB</text>
<rect x="788" y="521" width="70" height="26" rx="13" fill="#EDE9FE"/>
<text x="823.0" y="539" text-anchor="middle" fill="#6D28D9" font-size="12" font-weight="bold">Manual</text>
<rect x="1036" y="499" width="116" height="36" rx="10" fill="none" stroke="#4F46E5" stroke-width="2"/>
<text x="1094" y="522" text-anchor="middle" fill="#4F46E5" font-size="13" font-weight="bold">Pulihkan</text>
<rect x="632" y="568" width="520" height="48" rx="14" fill="none" stroke="#CBD5E1" stroke-width="2" stroke-dasharray="6,5"/>
<text x="892.0" y="596" text-anchor="middle" fill="#64748B" font-size="14" font-weight="bold">+ Import File Backup</text>
<path d="M646,638 L656,656 L636,656 Z" fill="none" stroke="#D97706" stroke-width="2.2" stroke-linejoin="round"/><line x1="646" y1="645" x2="646" y2="650" stroke="#D97706" stroke-width="2.2" stroke-linecap="round"/><circle cx="646" cy="653.5" r="1.2" fill="#D97706"/>
<text x="666" y="653" fill="#B45309" font-size="12">Memulihkan data akan menimpa data saat ini.</text>
</svg>