<svg width="1200" height="800" viewBox="0 0 1200 800" xmlns="http://www.w3.org/2000/svg" font-family="Arial, sans-serif">
<defs><linearGradient id="logoGrad" x1="0" y1="0" x2="1" y2="1"><stop offset="0" stop-color="#6366F1"/><stop offset="1" stop-color="#1D4ED8"/></linearGradient></defs>
<rect width="1200" height="800" fill="#F8FAFC"/>
<rect x="0" y="0" width="1200" height="84" fill="#FFFFFF"/>
<line x1="0" y1="84" x2="1200" y2="84" stroke="#E2E8F0" stroke-width="2"/>

  <g transform="translate(20,17) scale(0.048828)">
    <rect width="1024" height="1024" rx="230" fill="url(#logoGrad)"/>
    <rect x="360" y="300" width="80" height="424" rx="16" fill="#FFFFFF"/>
    <path d="M440,512 L660,300 L560,300 L440,430 Z" fill="#FFFFFF"/>
    <path d="M440,512 L660,724 L560,724 L440,590 Z" fill="#FFFFFF"/>
    <circle cx="700" cy="512" r="34" fill="#FBBF24"/>
  </g>
<text x="82" y="48" fill="#0F172A" font-size="24" font-weight="bold">Kasirin</text>
<text x="1176" y="36" text-anchor="end" fill="#0F172A" font-size="16" font-weight="bold">Admin: Sarah</text>
<text x="1176" y="58" text-anchor="end" fill="#94A3B8" font-size="14">22 Jul 2026, 14:35</text>
<text x="24" y="132" fill="#0F172A" font-size="28" font-weight="bold">Printer Bluetooth</text>
<text x="24" y="156" fill="#94A3B8" font-size="15">Hubungkan printer thermal untuk mencetak struk</text>
<text x="980" y="128" fill="#334155" font-size="15" font-weight="bold">Bluetooth Aktif</text>
<rect x="1110" y="112" width="48" height="26" rx="13" fill="#4F46E5"/><circle cx="1145" cy="125" r="10" fill="#FFFFFF"/>
<rect x="24" y="190" width="420" height="586" rx="20" fill="#FFFFFF" stroke="#E2E8F0" stroke-width="2"/>
<text x="48" y="224" fill="#0F172A" font-size="18" font-weight="bold">Printer Aktif</text>
<circle cx="86" cy="280" r="30" fill="#DCFCE7"/>
<path d="M79.5,273.5 L92.5,286.5 L86.0,293.0 L86.0,267.0 L92.5,273.5 L79.5,286.5" fill="none" stroke="#16A34A" stroke-width="2.4" stroke-linecap="round" stroke-linejoin="round"/>
<text x="132" y="270" fill="#0F172A" font-size="17" font-weight="bold">EPPOS EP58-BT</text>
<circle cx="136" cy="288" r="5" fill="#16A34A"/>
<text x="148" y="293" fill="#16A34A" font-size="13" font-weight="bold">Terhubung</text>
<rect x="132" y="310" width="4" height="6" rx="2" fill="#16A34A"/><rect x="139" y="306" width="4" height="10" rx="2" fill="#16A34A"/><rect x="146" y="302" width="4" height="14" rx="2" fill="#16A34A"/><rect x="153" y="298" width="4" height="18" rx="2" fill="#16A34A"/>
<text x="420" y="270" text-anchor="end" fill="#94A3B8" font-size="12">Baterai 82%</text>
<line x1="48" y1="340" x2="420" y2="340" stroke="#F1F5F9" stroke-width="2"/>
<text x="48" y="378" fill="#334155" font-size="15" font-weight="bold">Ukuran Kertas</text>
<rect x="48" y="392" width="90" height="40" rx="20" fill="#4F46E5"/>
<text x="93" y="417" text-anchor="middle" fill="#FFFFFF" font-size="14" font-weight="bold">58mm</text>
<rect x="146" y="392" width="90" height="40" rx="20" fill="#FFFFFF" stroke="#E2E8F0" stroke-width="2"/>
<text x="191" y="417" text-anchor="middle" fill="#334155" font-size="14" font-weight="bold">80mm</text>
<rect x="48" y="468" width="372" height="54" rx="14" fill="#EEF2FF"/>
<text x="234.0" y="502" text-anchor="middle" fill="#4F46E5" font-size="16" font-weight="bold">Test Print</text>
<rect x="48" y="536" width="372" height="50" rx="14" fill="none" stroke="#EF4444" stroke-width="2"/>
<text x="234.0" y="568" text-anchor="middle" fill="#EF4444" font-size="15" font-weight="bold">Putuskan Sambungan</text>
<text x="48" y="628" fill="#94A3B8" font-size="13">Cetak Otomatis Setelah Transaksi</text>
<rect x="372" y="610" width="48" height="26" rx="13" fill="#4F46E5"/><circle cx="407" cy="623" r="10" fill="#FFFFFF"/>
<text x="468" y="216" fill="#0F172A" font-size="18" font-weight="bold">Perangkat Lain Tersedia</text>
<rect x="1006" y="192" width="170" height="44" rx="12" fill="#FFFFFF" stroke="#4F46E5" stroke-width="2"/>
<text x="1091.0" y="219" text-anchor="middle" fill="#4F46E5" font-size="14" font-weight="bold">Cari Perangkat</text>
<rect x="468" y="246" width="708" height="110" rx="18" fill="#FFFFFF" stroke="#E2E8F0" stroke-width="2"/>
<circle cx="520" cy="301" r="30" fill="#EEF2FF"/>
<path d="M513.0,294.0 L527.0,308.0 L520.0,315.0 L520.0,287.0 L527.0,294.0 L513.0,308.0" fill="none" stroke="#4F46E5" stroke-width="2.4" stroke-linecap="round" stroke-linejoin="round"/>
<text x="570" y="290" fill="#0F172A" font-size="17" font-weight="bold">Xprinter XP-P323B</text>
<text x="570" y="314" fill="#94A3B8" font-size="13">Printer Thermal 80mm</text>
<rect x="570" y="336" width="4" height="6" rx="2" fill="#16A34A"/><rect x="577" y="332" width="4" height="10" rx="2" fill="#16A34A"/><rect x="584" y="328" width="4" height="14" rx="2" fill="#16A34A"/><rect x="591" y="324" width="4" height="18" rx="2" fill="#E2E8F0"/>
<rect x="1016" y="279" width="160" height="46" rx="14" fill="#4F46E5"/>
<text x="1096" y="308" text-anchor="middle" fill="#FFFFFF" font-size="15" font-weight="bold">Sambungkan</text>
<rect x="468" y="370" width="708" height="110" rx="18" fill="#FFFFFF" stroke="#E2E8F0" stroke-width="2"/>
<circle cx="520" cy="425" r="30" fill="#EEF2FF"/>
<path d="M513.0,418.0 L527.0,432.0 L520.0,439.0 L520.0,411.0 L527.0,418.0 L513.0,432.0" fill="none" stroke="#4F46E5" stroke-width="2.4" stroke-linecap="round" stroke-linejoin="round"/>
<text x="570" y="414" fill="#0F172A" font-size="17" font-weight="bold">Rongta RP328</text>
<text x="570" y="438" fill="#94A3B8" font-size="13">Printer Thermal 58mm</text>
<rect x="570" y="460" width="4" height="6" rx="2" fill="#16A34A"/><rect x="577" y="456" width="4" height="10" rx="2" fill="#16A34A"/><rect x="584" y="452" width="4" height="14" rx="2" fill="#E2E8F0"/><rect x="591" y="448" width="4" height="18" rx="2" fill="#E2E8F0"/>
<rect x="1016" y="403" width="160" height="46" rx="14" fill="#4F46E5"/>
<text x="1096" y="432" text-anchor="middle" fill="#FFFFFF" font-size="15" font-weight="bold">Sambungkan</text>
<rect x="468" y="494" width="708" height="110" rx="18" fill="#FFFFFF" stroke="#E2E8F0" stroke-width="2"/>
<circle cx="520" cy="549" r="30" fill="#EEF2FF"/>
<path d="M513.0,542.0 L527.0,556.0 L520.0,563.0 L520.0,535.0 L527.0,542.0 L513.0,556.0" fill="none" stroke="#4F46E5" stroke-width="2.4" stroke-linecap="round" stroke-linejoin="round"/>
<text x="570" y="538" fill="#0F172A" font-size="17" font-weight="bold">iMin Thermal-02</text>
<text x="570" y="562" fill="#94A3B8" font-size="13">Printer Thermal 58mm</text>
<rect x="570" y="584" width="4" height="6" rx="2" fill="#16A34A"/><rect x="577" y="580" width="4" height="10" rx="2" fill="#16A34A"/><rect x="584" y="576" width="4" height="14" rx="2" fill="#16A34A"/><rect x="591" y="572" width="4" height="18" rx="2" fill="#16A34A"/>
<rect x="1016" y="527" width="160" height="46" rx="14" fill="#4F46E5"/>
<text x="1096" y="556" text-anchor="middle" fill="#FFFFFF" font-size="15" font-weight="bold">Sambungkan</text>
<text x="468" y="632" fill="#94A3B8" font-size="13">Tidak menemukan printer? Pastikan Bluetooth aktif dan printer dalam mode pairing.</text>
</svg>