<svg width="1200" height="800" viewBox="0 0 1200 800" xmlns="http://www.w3.org/2000/svg" font-family="Arial, sans-serif">
<defs><linearGradient id="logoGrad" x1="0" y1="0" x2="1" y2="1"><stop offset="0" stop-color="#6366F1"/><stop offset="1" stop-color="#1D4ED8"/></linearGradient></defs>
<rect width="1200" height="800" fill="#F8FAFC"/>
<rect x="0" y="0" width="1200" height="84" fill="#FFFFFF"/>
<line x1="0" y1="84" x2="1200" y2="84" stroke="#E2E8F0" stroke-width="2"/>

  <g transform="translate(20,17) scale(0.048828)">
    <rect width="1024" height="1024" rx="230" fill="url(#logoGrad)"/>
    <rect x="360" y="300" width="80" height="424" rx="16" fill="#FFFFFF"/>
    <path d="M440,512 L660,300 L560,300 L440,430 Z" fill="#FFFFFF"/>
    <path d="M440,512 L660,724 L560,724 L440,590 Z" fill="#FFFFFF"/>
    <circle cx="700" cy="512" r="34" fill="#FBBF24"/>
  </g>
<text x="82" y="48" fill="#0F172A" font-size="24" font-weight="bold">Kasirin</text>
<text x="1176" y="36" text-anchor="end" fill="#0F172A" font-size="16" font-weight="bold">Kasir: Rendi</text>
<text x="1176" y="58" text-anchor="end" fill="#94A3B8" font-size="14">22 Jul 2026, 14:30</text>
<rect x="24" y="110" width="772" height="56" rx="28" fill="#FFFFFF" stroke="#E2E8F0" stroke-width="2"/>
<circle cx="56" cy="138" r="9" fill="none" stroke="#94A3B8" stroke-width="3"/>
<line x1="63" y1="145" x2="70" y2="152" stroke="#94A3B8" stroke-width="3" stroke-linecap="round"/>
<text x="82" y="144" fill="#94A3B8" font-size="18">Cari produk atau scan barcode...</text>
<rect x="24" y="184" width="84" height="40" rx="20" fill="#4F46E5"/>
<text x="66.0" y="209" text-anchor="middle" fill="#FFFFFF" font-size="15" font-weight="bold">Semua</text>
<rect x="120" y="184" width="104" height="40" rx="20" fill="#FFFFFF" stroke="#E2E8F0" stroke-width="2"/>
<text x="172.0" y="209" text-anchor="middle" fill="#334155" font-size="15" font-weight="bold">Makanan</text>
<rect x="236" y="184" width="104" height="40" rx="20" fill="#FFFFFF" stroke="#E2E8F0" stroke-width="2"/>
<text x="288.0" y="209" text-anchor="middle" fill="#334155" font-size="15" font-weight="bold">Minuman</text>
<rect x="352" y="184" width="84" height="40" rx="20" fill="#FFFFFF" stroke="#E2E8F0" stroke-width="2"/>
<text x="394.0" y="209" text-anchor="middle" fill="#334155" font-size="15" font-weight="bold">Snack</text>
<rect x="448" y="184" width="104" height="40" rx="20" fill="#FFFFFF" stroke="#E2E8F0" stroke-width="2"/>
<text x="500.0" y="209" text-anchor="middle" fill="#334155" font-size="15" font-weight="bold">Lainnya</text>
<rect x="24" y="246" width="178" height="176" rx="18" fill="#FFFFFF" stroke="#E2E8F0" stroke-width="2"/>
<rect x="38" y="260" width="150" height="80" rx="14" fill="#FDE68A"/>
<rect x="132" y="252" width="62" height="26" rx="13" fill="#FFFFFF" stroke="#16A34A" stroke-width="2"/>
<text x="163" y="269" text-anchor="middle" fill="#16A34A" font-size="12" font-weight="bold">Stok 24</text>
<text x="38" y="364" fill="#0F172A" font-size="15" font-weight="bold">Kopi Susu Aren</text>
<text x="38" y="410" fill="#4F46E5" font-size="17" font-weight="bold">Rp 18.000</text>
<circle cx="178" cy="398" r="18" fill="#4F46E5"/>
<text x="178" y="404" text-anchor="middle" fill="#FFFFFF" font-size="20" font-weight="bold">+</text>
<rect x="222" y="246" width="178" height="176" rx="18" fill="#FFFFFF" stroke="#E2E8F0" stroke-width="2"/>
<rect x="236" y="260" width="150" height="80" rx="14" fill="#FCA5A5"/>
<rect x="330" y="252" width="62" height="26" rx="13" fill="#FFFFFF" stroke="#16A34A" stroke-width="2"/>
<text x="361" y="269" text-anchor="middle" fill="#16A34A" font-size="12" font-weight="bold">Stok 12</text>
<text x="236" y="364" fill="#0F172A" font-size="15" font-weight="bold">Roti Bakar</text>
<text x="236" y="384" fill="#0F172A" font-size="15" font-weight="bold">Coklat</text>
<text x="236" y="410" fill="#4F46E5" font-size="17" font-weight="bold">Rp 15.000</text>
<circle cx="376" cy="398" r="18" fill="#4F46E5"/>
<text x="376" y="404" text-anchor="middle" fill="#FFFFFF" font-size="20" font-weight="bold">+</text>
<rect x="420" y="246" width="178" height="176" rx="18" fill="#FFFFFF" stroke="#E2E8F0" stroke-width="2"/>
<rect x="434" y="260" width="150" height="80" rx="14" fill="#93C5FD"/>
<rect x="528" y="252" width="62" height="26" rx="13" fill="#FFFFFF" stroke="#16A34A" stroke-width="2"/>
<text x="559" y="269" text-anchor="middle" fill="#16A34A" font-size="12" font-weight="bold">Stok 40</text>
<text x="434" y="364" fill="#0F172A" font-size="15" font-weight="bold">Es Teh Manis</text>
<text x="434" y="410" fill="#4F46E5" font-size="17" font-weight="bold">Rp 8.000</text>
<circle cx="574" cy="398" r="18" fill="#4F46E5"/>
<text x="574" y="404" text-anchor="middle" fill="#FFFFFF" font-size="20" font-weight="bold">+</text>
<rect x="618" y="246" width="178" height="176" rx="18" fill="#FFFFFF" stroke="#E2E8F0" stroke-width="2"/>
<rect x="632" y="260" width="150" height="80" rx="14" fill="#FDBA74"/>
<rect x="726" y="252" width="62" height="26" rx="13" fill="#FFFFFF" stroke="#EF4444" stroke-width="2"/>
<text x="757" y="269" text-anchor="middle" fill="#EF4444" font-size="12" font-weight="bold">Stok 8</text>
<text x="632" y="364" fill="#0F172A" font-size="15" font-weight="bold">Nasi Goreng</text>
<text x="632" y="384" fill="#0F172A" font-size="15" font-weight="bold">Spesial</text>
<text x="632" y="410" fill="#4F46E5" font-size="17" font-weight="bold">Rp 22.000</text>
<circle cx="772" cy="398" r="18" fill="#4F46E5"/>
<text x="772" y="404" text-anchor="middle" fill="#FFFFFF" font-size="20" font-weight="bold">+</text>
<rect x="24" y="442" width="178" height="176" rx="18" fill="#FFFFFF" stroke="#E2E8F0" stroke-width="2"/>
<rect x="38" y="456" width="150" height="80" rx="14" fill="#FCD34D"/>
<rect x="132" y="448" width="62" height="26" rx="13" fill="#FFFFFF" stroke="#16A34A" stroke-width="2"/>
<text x="163" y="465" text-anchor="middle" fill="#16A34A" font-size="12" font-weight="bold">Stok 15</text>
<text x="38" y="560" fill="#0F172A" font-size="15" font-weight="bold">Ayam Geprek</text>
<text x="38" y="606" fill="#4F46E5" font-size="17" font-weight="bold">Rp 20.000</text>
<circle cx="178" cy="594" r="18" fill="#4F46E5"/>
<text x="178" y="600" text-anchor="middle" fill="#FFFFFF" font-size="20" font-weight="bold">+</text>
<rect x="222" y="442" width="178" height="176" rx="18" fill="#FFFFFF" stroke="#E2E8F0" stroke-width="2"/>
<rect x="236" y="456" width="150" height="80" rx="14" fill="#FDA4AF"/>
<rect x="330" y="448" width="62" height="26" rx="13" fill="#FFFFFF" stroke="#EF4444" stroke-width="2"/>
<text x="361" y="465" text-anchor="middle" fill="#EF4444" font-size="12" font-weight="bold">Stok 6</text>
<text x="236" y="560" fill="#0F172A" font-size="15" font-weight="bold">Mie Ayam Bakso</text>
<text x="236" y="606" fill="#4F46E5" font-size="17" font-weight="bold">Rp 17.000</text>
<circle cx="376" cy="594" r="18" fill="#4F46E5"/>
<text x="376" y="600" text-anchor="middle" fill="#FFFFFF" font-size="20" font-weight="bold">+</text>
<rect x="420" y="442" width="178" height="176" rx="18" fill="#FFFFFF" stroke="#E2E8F0" stroke-width="2"/>
<rect x="434" y="456" width="150" height="80" rx="14" fill="#86EFAC"/>
<rect x="528" y="448" width="62" height="26" rx="13" fill="#FFFFFF" stroke="#16A34A" stroke-width="2"/>
<text x="559" y="465" text-anchor="middle" fill="#16A34A" font-size="12" font-weight="bold">Stok 18</text>
<text x="434" y="560" fill="#0F172A" font-size="15" font-weight="bold">Jus Alpukat</text>
<text x="434" y="606" fill="#4F46E5" font-size="17" font-weight="bold">Rp 14.000</text>
<circle cx="574" cy="594" r="18" fill="#4F46E5"/>
<text x="574" y="600" text-anchor="middle" fill="#FFFFFF" font-size="20" font-weight="bold">+</text>
<rect x="618" y="442" width="178" height="176" rx="18" fill="#FFFFFF" stroke="#E2E8F0" stroke-width="2"/>
<rect x="632" y="456" width="150" height="80" rx="14" fill="#F9A8D4"/>
<rect x="726" y="448" width="62" height="26" rx="13" fill="#FFFFFF" stroke="#16A34A" stroke-width="2"/>
<text x="757" y="465" text-anchor="middle" fill="#16A34A" font-size="12" font-weight="bold">Stok 30</text>
<text x="632" y="560" fill="#0F172A" font-size="15" font-weight="bold">Donat Gula</text>
<text x="632" y="606" fill="#4F46E5" font-size="17" font-weight="bold">Rp 6.000</text>
<circle cx="772" cy="594" r="18" fill="#4F46E5"/>
<text x="772" y="600" text-anchor="middle" fill="#FFFFFF" font-size="20" font-weight="bold">+</text>
<text x="24" y="658" fill="#64748B" font-size="15">+ 24 produk lainnya, gulir untuk melihat semua</text>
<rect x="820" y="84" width="380" height="716" fill="#FFFFFF"/>
<line x1="820" y1="84" x2="820" y2="800" stroke="#E2E8F0" stroke-width="2"/>
<text x="844" y="130" fill="#0F172A" font-size="20" font-weight="bold">Pesanan Saat Ini</text>
<text x="844" y="154" fill="#94A3B8" font-size="14">#TRX-0231 &#183; 3 item</text>
<line x1="844" y1="172" x2="1176" y2="172" stroke="#E2E8F0" stroke-width="2"/>
<text x="844" y="200" fill="#0F172A" font-size="16" font-weight="bold">Kopi Susu Aren</text>
<text x="844" y="222" fill="#94A3B8" font-size="14">2 x Rp 18.000</text>
<text x="1176" y="222" text-anchor="end" fill="#0F172A" font-size="15" font-weight="bold">Rp 36.000</text>
<circle cx="1060" cy="194" r="14" fill="#F1F5F9"/>
<text x="1060" y="199" text-anchor="middle" fill="#334155" font-size="16">-</text>
<text x="1100" y="199" text-anchor="middle" fill="#0F172A" font-size="15" font-weight="bold">2</text>
<circle cx="1136" cy="194" r="14" fill="#F1F5F9"/>
<text x="1136" y="199" text-anchor="middle" fill="#334155" font-size="16">+</text>
<text x="844" y="260" fill="#0F172A" font-size="16" font-weight="bold">Roti Bakar Coklat</text>
<text x="844" y="282" fill="#94A3B8" font-size="14">1 x Rp 15.000</text>
<text x="1176" y="282" text-anchor="end" fill="#0F172A" font-size="15" font-weight="bold">Rp 15.000</text>
<circle cx="1060" cy="254" r="14" fill="#F1F5F9"/>
<text x="1060" y="259" text-anchor="middle" fill="#334155" font-size="16">-</text>
<text x="1100" y="259" text-anchor="middle" fill="#0F172A" font-size="15" font-weight="bold">1</text>
<circle cx="1136" cy="254" r="14" fill="#F1F5F9"/>
<text x="1136" y="259" text-anchor="middle" fill="#334155" font-size="16">+</text>
<text x="844" y="320" fill="#0F172A" font-size="16" font-weight="bold">Es Teh Manis</text>
<text x="844" y="342" fill="#94A3B8" font-size="14">3 x Rp 8.000</text>
<text x="1176" y="342" text-anchor="end" fill="#0F172A" font-size="15" font-weight="bold">Rp 24.000</text>
<circle cx="1060" cy="314" r="14" fill="#F1F5F9"/>
<text x="1060" y="319" text-anchor="middle" fill="#334155" font-size="16">-</text>
<text x="1100" y="319" text-anchor="middle" fill="#0F172A" font-size="15" font-weight="bold">3</text>
<circle cx="1136" cy="314" r="14" fill="#F1F5F9"/>
<text x="1136" y="319" text-anchor="middle" fill="#334155" font-size="16">+</text>
<line x1="844" y1="384" x2="1176" y2="384" stroke="#E2E8F0" stroke-width="2"/>
<text x="844" y="416" fill="#64748B" font-size="15">Subtotal</text>
<text x="1176" y="416" text-anchor="end" fill="#0F172A" font-size="15">Rp 75.000</text>
<text x="844" y="446" fill="#64748B" font-size="15">Diskon</text>
<text x="1176" y="446" text-anchor="end" fill="#EF4444" font-size="15">- Rp 5.000</text>
<text x="844" y="484" fill="#0F172A" font-size="20" font-weight="bold">Total</text>
<text x="1176" y="484" text-anchor="end" fill="#4F46E5" font-size="24" font-weight="bold">Rp 70.000</text>
<rect x="844" y="516" width="168" height="56" rx="14" fill="none" stroke="#4F46E5" stroke-width="2.5"/>
<text x="928" y="551" text-anchor="middle" fill="#4F46E5" font-size="16" font-weight="bold">Diskon</text>
<rect x="1028" y="516" width="168" height="56" rx="14" fill="none" stroke="#EF4444" stroke-width="2.5"/>
<text x="1112" y="551" text-anchor="middle" fill="#EF4444" font-size="16" font-weight="bold">Batalkan</text>
<rect x="844" y="588" width="352" height="72" rx="18" fill="#4F46E5"/>
<text x="1020" y="633" text-anchor="middle" fill="#FFFFFF" font-size="24" font-weight="bold">Bayar Rp 70.000</text>
</svg>