<svg width="750" height="1620" viewBox="0 0 750 1620" xmlns="http://www.w3.org/2000/svg" font-family="Arial, sans-serif">
<defs><linearGradient id="barGrad" x1="0" y1="0" x2="0" y2="1"><stop offset="0" stop-color="#6366F1"/><stop offset="1" stop-color="#4F46E5"/></linearGradient></defs>
<rect width="750" height="1620" fill="#FFFFFF"/>

<!-- app bar -->
<rect x="0" y="0" width="750" height="112" fill="#FFFFFF"/>
<line x1="0" y1="112" x2="750" y2="112" stroke="#E2E8F0" stroke-width="2"/>
<path d="M56,40 L38,56 L56,72" fill="none" stroke="#0F172A" stroke-width="4" stroke-linecap="round" stroke-linejoin="round"/>
<text x="84" y="68" fill="#0F172A" font-size="32" font-weight="bold">Laporan Harian</text>

<!-- date -->
<text x="29" y="152" fill="#94A3B8" font-size="24">Rabu, 22 Juli 2026</text>

<!-- sales card -->
<rect x="29" y="190" width="692" height="548" rx="36" fill="#FFFFFF" stroke="#E2E8F0" stroke-width="2"/>
<text x="65" y="242" fill="#94A3B8" font-size="22">Total Penjualan Hari Ini</text>
<text x="65" y="288" fill="#0F172A" font-size="44" font-weight="bold">Rp 3.240.000</text>
<path d="M65,336 L72,324 L79,336" fill="none" stroke="#16A34A" stroke-width="3" stroke-linecap="round" stroke-linejoin="round"/>
<line x1="72" y1="324" x2="72" y2="338" stroke="#16A34A" stroke-width="3" stroke-linecap="round"/>
<text x="90" y="331" fill="#16A34A" font-size="20" font-weight="bold">12% dari kemarin</text>
<line x1="65" y1="354" x2="685" y2="354" stroke="#F1F5F9" stroke-width="2"/>
<text x="65" y="388" fill="#0F172A" font-size="24" font-weight="bold">Penjualan per Jam</text>

<!-- hourly bar chart -->
<line x1="65" y1="672" x2="685" y2="672" stroke="#F1F5F9" stroke-width="2"/>
<rect x="65" y="544" width="72" height="128" rx="11" fill="url(#barGrad)"/>
<text x="101" y="702" text-anchor="middle" fill="#94A3B8" font-size="18">09</text>
<rect x="143" y="430" width="72" height="242" rx="11" fill="url(#barGrad)"/>
<text x="179" y="702" text-anchor="middle" fill="#94A3B8" font-size="18">10</text>
<rect x="221" y="445" width="72" height="227" rx="11" fill="url(#barGrad)"/>
<text x="257" y="702" text-anchor="middle" fill="#94A3B8" font-size="18">11</text>
<rect x="299" y="580" width="72" height="92" rx="11" fill="url(#barGrad)"/>
<text x="335" y="702" text-anchor="middle" fill="#94A3B8" font-size="18">12</text>
<rect x="377" y="448" width="72" height="224" rx="11" fill="url(#barGrad)"/>
<text x="413" y="702" text-anchor="middle" fill="#94A3B8" font-size="18">13</text>
<rect x="455" y="430" width="72" height="242" rx="11" fill="url(#barGrad)"/>
<text x="491" y="702" text-anchor="middle" fill="#94A3B8" font-size="18">14</text>
<rect x="533" y="468" width="72" height="204" rx="11" fill="url(#barGrad)"/>
<text x="569" y="702" text-anchor="middle" fill="#94A3B8" font-size="18">15</text>
<rect x="611" y="417" width="72" height="255" rx="11" fill="url(#barGrad)"/>
<text x="647" y="702" text-anchor="middle" fill="#94A3B8" font-size="18">16</text>

<!-- transaction count card -->
<rect x="29" y="767" width="692" height="160" rx="36" fill="#FFFFFF" stroke="#E2E8F0" stroke-width="2"/>
<circle cx="115" cy="847" r="44" fill="#FEF3C7"/>
<text x="115" y="858" text-anchor="middle" fill="#B45309" font-size="32" font-weight="bold">#</text>
<text x="181" y="825" fill="#94A3B8" font-size="22">Jumlah Transaksi</text>
<text x="181" y="878" fill="#0F172A" font-size="42" font-weight="bold">48</text>
<text x="685" y="878" text-anchor="end" fill="#16A34A" font-size="22" font-weight="bold">+5 transaksi</text>

<!-- transaksi terbaru -->
<text x="29" y="991" fill="#0F172A" font-size="29" font-weight="bold">Transaksi Terbaru</text>

<rect x="29" y="1015" width="692" height="100" rx="25" fill="#F8FAFC"/>
<text x="54" y="1050" fill="#0F172A" font-size="24" font-weight="bold">TRX-0231</text>
<text x="54" y="1083" fill="#94A3B8" font-size="20">14:35 &#183; 3 item &#183; Tunai</text>
<text x="696" y="1065" text-anchor="end" fill="#0F172A" font-size="26" font-weight="bold">Rp 70.000</text>

<rect x="29" y="1130" width="692" height="100" rx="25" fill="#F8FAFC"/>
<text x="54" y="1165" fill="#0F172A" font-size="24" font-weight="bold">TRX-0230</text>
<text x="54" y="1198" fill="#94A3B8" font-size="20">14:12 &#183; 1 item &#183; QRIS</text>
<text x="696" y="1180" text-anchor="end" fill="#0F172A" font-size="26" font-weight="bold">Rp 22.000</text>

<rect x="29" y="1245" width="692" height="100" rx="25" fill="#F8FAFC"/>
<text x="54" y="1280" fill="#0F172A" font-size="24" font-weight="bold">TRX-0229</text>
<text x="54" y="1313" fill="#94A3B8" font-size="20">13:58 &#183; 5 item &#183; Tunai</text>
<text x="696" y="1295" text-anchor="end" fill="#0F172A" font-size="26" font-weight="bold">Rp 145.000</text>

<rect x="29" y="1360" width="692" height="100" rx="25" fill="#F8FAFC"/>
<text x="54" y="1395" fill="#0F172A" font-size="24" font-weight="bold">TRX-0228</text>
<text x="54" y="1428" fill="#94A3B8" font-size="20">13:40 &#183; 2 item &#183; Kartu Debit</text>
<text x="696" y="1410" text-anchor="end" fill="#0F172A" font-size="26" font-weight="bold">Rp 36.000</text>

<rect x="29" y="1475" width="692" height="100" rx="25" fill="#F8FAFC"/>
<text x="54" y="1510" fill="#0F172A" font-size="24" font-weight="bold">TRX-0227</text>
<text x="54" y="1543" fill="#94A3B8" font-size="20">13:15 &#183; 4 item &#183; Tunai</text>
<text x="696" y="1525" text-anchor="end" fill="#0F172A" font-size="26" font-weight="bold">Rp 88.000</text>
</svg>
