<svg width="750" height="1624" viewBox="0 0 750 1624" xmlns="http://www.w3.org/2000/svg" font-family="Arial, sans-serif">
  <defs>
    <linearGradient id="bgG" x1="0" y1="0" x2="1" y2="1">
      <stop offset="0" stop-color="#6366F1"/>
      <stop offset="1" stop-color="#1E1B4B"/>
    </linearGradient>
    <linearGradient id="btnG" x1="0" y1="0" x2="1" y2="0">
      <stop offset="0" stop-color="#818CF8"/>
      <stop offset="1" stop-color="#1D4ED8"/>
    </linearGradient>
    <linearGradient id="logoGrad2" x1="0" y1="0" x2="1" y2="1">
      <stop offset="0" stop-color="#6366F1"/>
      <stop offset="1" stop-color="#1D4ED8"/>
    </linearGradient>
  </defs>
  <rect width="750" height="1624" fill="url(#bgG)"/>
  <circle cx="660" cy="140" r="180" fill="#FFFFFF" opacity="0.08"/>
  <circle cx="70" cy="1520" r="220" fill="#FFFFFF" opacity="0.06"/>
  <circle cx="120" cy="260" r="60" fill="#FFFFFF" opacity="0.08"/>

  <!-- card -->
  <rect x="40" y="520" width="670" height="1000" rx="48" fill="#FFFFFF"/>

  <!-- logo badge overlapping card top -->
  <g transform="translate(275,420) scale(0.19531)">
    <rect width="1024" height="1024" rx="230" fill="url(#logoGrad2)" stroke="#FFFFFF" stroke-width="14"/>
    <rect x="360" y="300" width="80" height="424" rx="16" fill="#FFFFFF"/>
    <path d="M440,512 L660,300 L560,300 L440,430 Z" fill="#FFFFFF"/>
    <path d="M440,512 L660,724 L560,724 L440,590 Z" fill="#FFFFFF"/>
    <circle cx="700" cy="512" r="34" fill="#FBBF24"/>
  </g>

  <text x="375" y="660" text-anchor="middle" fill="#4F46E5" font-size="26" font-weight="bold" letter-spacing="3">KASIRIN</text>
  <text x="375" y="715" text-anchor="middle" fill="#0F172A" font-size="38" font-weight="bold">Selamat Datang</text>
  <text x="375" y="750" text-anchor="middle" fill="#64748B" font-size="20">Masuk untuk melanjutkan</text>

  <rect x="90" y="800" width="590" height="90" rx="20" fill="#F8FAFC" stroke="#E2E8F0" stroke-width="2"/>
  <text x="120" y="854" fill="#94A3B8" font-size="22">Email atau No. HP</text>

  <rect x="90" y="915" width="590" height="90" rx="20" fill="#F8FAFC" stroke="#E2E8F0" stroke-width="2"/>
  <text x="120" y="969" fill="#94A3B8" font-size="22">Kata Sandi</text>
  <circle cx="630" cy="960" r="16" fill="none" stroke="#94A3B8" stroke-width="3"/>

  <text x="680" y="1038" text-anchor="end" fill="#4F46E5" font-size="20" font-weight="bold">Lupa kata sandi?</text>

  <rect x="90" y="1075" width="590" height="96" rx="24" fill="url(#btnG)"/>
  <text x="375" y="1133" text-anchor="middle" fill="#FFFFFF" font-size="30" font-weight="bold">Masuk</text>

  <text x="375" y="1220" text-anchor="middle" fill="#94A3B8" font-size="18">atau masuk dengan</text>

  <circle cx="300" cy="1280" r="38" fill="#F8FAFC" stroke="#E2E8F0" stroke-width="2"/>
  <text x="300" y="1290" text-anchor="middle" font-size="22" font-weight="bold" fill="#0F172A">G</text>
  <circle cx="375" cy="1280" r="38" fill="#F8FAFC" stroke="#E2E8F0" stroke-width="2"/>
  <text x="375" y="1290" text-anchor="middle" font-size="22" font-weight="bold" fill="#0F172A">f</text>
  <circle cx="450" cy="1280" r="38" fill="#F8FAFC" stroke="#E2E8F0" stroke-width="2"/>
  <text x="450" y="1290" text-anchor="middle" font-size="20" font-weight="bold" fill="#0F172A">in</text>

  <text x="375" y="1400" text-anchor="middle" font-size="22">
    <tspan fill="#64748B">Belum punya akun? </tspan><tspan fill="#4F46E5" font-weight="bold">Daftar</tspan>
  </text>

  <rect x="300" y="1580" width="150" height="8" rx="4" fill="#FFFFFF" opacity="0.6"/>
</svg>
