<svg width="750" height="980" viewBox="0 0 750 980" xmlns="http://www.w3.org/2000/svg" font-family="Arial, sans-serif">
<rect width="750" height="980" fill="#F8FAFC"/>

<!-- app bar -->
<rect x="0" y="0" width="750" height="112" fill="#FFFFFF"/>
<line x1="0" y1="112" x2="750" y2="112" stroke="#E2E8F0" stroke-width="2"/>
<path d="M56,40 L38,56 L56,72" fill="none" stroke="#0F172A" stroke-width="4" stroke-linecap="round" stroke-linejoin="round"/>
<text x="84" y="68" fill="#0F172A" font-size="32" font-weight="bold">Manajemen Produk</text>
<!-- appbar actions: stock icon, category icon -->
<rect x="594" y="42" width="32" height="26" rx="4" fill="none" stroke="#0F172A" stroke-width="3"/>
<line x1="594" y1="50" x2="626" y2="50" stroke="#0F172A" stroke-width="3"/>
<rect x="674" y="46" width="14" height="14" rx="3" fill="none" stroke="#0F172A" stroke-width="2.5"/>
<rect x="694" y="46" width="14" height="14" rx="3" fill="none" stroke="#0F172A" stroke-width="2.5"/>
<rect x="674" y="66" width="14" height="14" rx="3" fill="none" stroke="#0F172A" stroke-width="2.5"/>
<rect x="694" y="66" width="14" height="14" rx="3" fill="none" stroke="#0F172A" stroke-width="2.5"/>

<!-- search field -->
<rect x="24" y="136" width="702" height="72" rx="36" fill="#F8FAFC"/>
<circle cx="58" cy="172" r="9" fill="none" stroke="#94A3B8" stroke-width="3"/>
<line x1="65" y1="179" x2="72" y2="186" stroke="#94A3B8" stroke-width="3" stroke-linecap="round"/>
<text x="90" y="180" fill="#94A3B8" font-size="22">Cari nama produk atau SKU...</text>

<!-- category chips -->
<rect x="24" y="228" width="110" height="52" rx="26" fill="#4F46E5"/>
<text x="79" y="262" text-anchor="middle" fill="#FFFFFF" font-size="20" font-weight="bold">Semua</text>
<rect x="150" y="228" width="150" height="52" rx="26" fill="#F8FAFC" stroke="#E2E8F0" stroke-width="2"/>
<text x="225" y="262" text-anchor="middle" fill="#0F172A" font-size="20" font-weight="bold">Makanan</text>
<rect x="316" y="228" width="150" height="52" rx="26" fill="#F8FAFC" stroke="#E2E8F0" stroke-width="2"/>
<text x="391" y="262" text-anchor="middle" fill="#0F172A" font-size="20" font-weight="bold">Minuman</text>
<rect x="482" y="228" width="120" height="52" rx="26" fill="#F8FAFC" stroke="#E2E8F0" stroke-width="2"/>
<text x="542" y="262" text-anchor="middle" fill="#0F172A" font-size="20" font-weight="bold">Snack</text>
<rect x="618" y="228" width="108" height="52" rx="26" fill="#F8FAFC" stroke="#E2E8F0" stroke-width="2"/>
<text x="672" y="262" text-anchor="middle" fill="#0F172A" font-size="20" font-weight="bold">Lainnya</text>

<!-- row 1: Kopi Susu Aren -->
<rect x="24" y="312" width="702" height="112" rx="25" fill="#FFFFFF" stroke="#E2E8F0" stroke-width="2"/>
<rect x="46" y="334" width="68" height="68" rx="18" fill="#EEF2FF"/>
<text x="80" y="376" text-anchor="middle" fill="#4F46E5" font-size="30" font-weight="bold">K</text>
<text x="136" y="360" fill="#0F172A" font-size="26" font-weight="bold">Kopi Susu Aren</text>
<text x="136" y="386" fill="#94A3B8" font-size="20">SKU-0231</text>
<rect x="136" y="396" width="112" height="30" rx="15" fill="#DBEAFE"/>
<text x="192" y="417" text-anchor="middle" fill="#1D4ED8" font-size="18" font-weight="bold">Minuman</text>
<rect x="262" y="396" width="96" height="30" rx="15" fill="#DCFCE7"/>
<text x="310" y="417" text-anchor="middle" fill="#16A34A" font-size="18" font-weight="bold">24 pcs</text>
<text x="704" y="360" text-anchor="end" fill="#0F172A" font-size="24" font-weight="bold">Rp 18.000</text>
<path d="M653,410 L669,394 M663,388 L679,404 L663,420 L647,404 Z" fill="none" stroke="#334155" stroke-width="2" stroke-linejoin="round"/>
<line x1="695" y1="392" x2="713" y2="392" stroke="#EF4444" stroke-width="2.2" stroke-linecap="round"/>
<path d="M698,392 L699,410 Q699,412 701,412 L707,412 Q709,412 709,410 L710,392" fill="none" stroke="#EF4444" stroke-width="2.2" stroke-linejoin="round"/>
<line x1="701" y1="392" x2="702" y2="388" stroke="#EF4444" stroke-width="2.2"/>
<line x1="707" y1="392" x2="706" y2="388" stroke="#EF4444" stroke-width="2.2"/>

<!-- row 2: Roti Bakar Coklat -->
<rect x="24" y="442" width="702" height="112" rx="25" fill="#FFFFFF" stroke="#E2E8F0" stroke-width="2"/>
<rect x="46" y="464" width="68" height="68" rx="18" fill="#EEF2FF"/>
<text x="80" y="506" text-anchor="middle" fill="#4F46E5" font-size="30" font-weight="bold">R</text>
<text x="136" y="490" fill="#0F172A" font-size="26" font-weight="bold">Roti Bakar Coklat</text>
<text x="136" y="516" fill="#94A3B8" font-size="20">SKU-0187</text>
<rect x="136" y="526" width="112" height="30" rx="15" fill="#FFEDD5"/>
<text x="192" y="547" text-anchor="middle" fill="#C2410C" font-size="18" font-weight="bold">Makanan</text>
<rect x="262" y="526" width="96" height="30" rx="15" fill="#DCFCE7"/>
<text x="310" y="547" text-anchor="middle" fill="#16A34A" font-size="18" font-weight="bold">12 pcs</text>
<text x="704" y="490" text-anchor="end" fill="#0F172A" font-size="24" font-weight="bold">Rp 15.000</text>
<path d="M653,540 L669,524 M663,518 L679,534 L663,550 L647,534 Z" fill="none" stroke="#334155" stroke-width="2" stroke-linejoin="round"/>
<line x1="695" y1="522" x2="713" y2="522" stroke="#EF4444" stroke-width="2.2" stroke-linecap="round"/>
<path d="M698,522 L699,540 Q699,542 701,542 L707,542 Q709,542 709,540 L710,522" fill="none" stroke="#EF4444" stroke-width="2.2" stroke-linejoin="round"/>
<line x1="701" y1="522" x2="702" y2="518" stroke="#EF4444" stroke-width="2.2"/>
<line x1="707" y1="522" x2="706" y2="518" stroke="#EF4444" stroke-width="2.2"/>

<!-- row 3: Es Teh Manis -->
<rect x="24" y="572" width="702" height="112" rx="25" fill="#FFFFFF" stroke="#E2E8F0" stroke-width="2"/>
<rect x="46" y="594" width="68" height="68" rx="18" fill="#EEF2FF"/>
<text x="80" y="636" text-anchor="middle" fill="#4F46E5" font-size="30" font-weight="bold">E</text>
<text x="136" y="620" fill="#0F172A" font-size="26" font-weight="bold">Es Teh Manis</text>
<text x="136" y="646" fill="#94A3B8" font-size="20">SKU-0092</text>
<rect x="136" y="656" width="112" height="30" rx="15" fill="#DBEAFE"/>
<text x="192" y="677" text-anchor="middle" fill="#1D4ED8" font-size="18" font-weight="bold">Minuman</text>
<rect x="262" y="656" width="96" height="30" rx="15" fill="#DCFCE7"/>
<text x="310" y="677" text-anchor="middle" fill="#16A34A" font-size="18" font-weight="bold">40 pcs</text>
<text x="704" y="620" text-anchor="end" fill="#0F172A" font-size="24" font-weight="bold">Rp 8.000</text>
<path d="M653,670 L669,654 M663,648 L679,664 L663,680 L647,664 Z" fill="none" stroke="#334155" stroke-width="2" stroke-linejoin="round"/>
<line x1="695" y1="652" x2="713" y2="652" stroke="#EF4444" stroke-width="2.2" stroke-linecap="round"/>
<path d="M698,652 L699,670 Q699,672 701,672 L707,672 Q709,672 709,670 L710,652" fill="none" stroke="#EF4444" stroke-width="2.2" stroke-linejoin="round"/>
<line x1="701" y1="652" x2="702" y2="648" stroke="#EF4444" stroke-width="2.2"/>
<line x1="707" y1="652" x2="706" y2="648" stroke="#EF4444" stroke-width="2.2"/>

<!-- row 4: Nasi Goreng Spesial (low stock) -->
<rect x="24" y="702" width="702" height="112" rx="25" fill="#FFFFFF" stroke="#E2E8F0" stroke-width="2"/>
<rect x="46" y="724" width="68" height="68" rx="18" fill="#EEF2FF"/>
<text x="80" y="766" text-anchor="middle" fill="#4F46E5" font-size="30" font-weight="bold">N</text>
<text x="136" y="750" fill="#0F172A" font-size="26" font-weight="bold">Nasi Goreng Spesial</text>
<text x="136" y="776" fill="#94A3B8" font-size="20">SKU-0311</text>
<rect x="136" y="786" width="112" height="30" rx="15" fill="#FFEDD5"/>
<text x="192" y="807" text-anchor="middle" fill="#C2410C" font-size="18" font-weight="bold">Makanan</text>
<rect x="262" y="786" width="96" height="30" rx="15" fill="#FEE2E2"/>
<text x="310" y="807" text-anchor="middle" fill="#DC2626" font-size="18" font-weight="bold">8 pcs</text>
<text x="704" y="750" text-anchor="end" fill="#0F172A" font-size="24" font-weight="bold">Rp 22.000</text>
<path d="M653,800 L669,784 M663,778 L679,794 L663,810 L647,794 Z" fill="none" stroke="#334155" stroke-width="2" stroke-linejoin="round"/>
<line x1="695" y1="782" x2="713" y2="782" stroke="#EF4444" stroke-width="2.2" stroke-linecap="round"/>
<path d="M698,782 L699,800 Q699,802 701,802 L707,802 Q709,802 709,800 L710,782" fill="none" stroke="#EF4444" stroke-width="2.2" stroke-linejoin="round"/>
<line x1="701" y1="782" x2="702" y2="778" stroke="#EF4444" stroke-width="2.2"/>
<line x1="707" y1="782" x2="706" y2="778" stroke="#EF4444" stroke-width="2.2"/>

<!-- FAB: Tambah Produk -->
<rect x="381" y="855" width="340" height="96" rx="32" fill="#4F46E5"/>
<line x1="424" y1="903" x2="448" y2="903" stroke="#FFFFFF" stroke-width="4" stroke-linecap="round"/>
<line x1="436" y1="891" x2="436" y2="915" stroke="#FFFFFF" stroke-width="4" stroke-linecap="round"/>
<text x="468" y="913" fill="#FFFFFF" font-size="26" font-weight="bold">Tambah Produk</text>
</svg>
