<svg width="1200" height="800" viewBox="0 0 1200 800" xmlns="http://www.w3.org/2000/svg" font-family="Arial, sans-serif">
<defs><linearGradient id="logoGrad" x1="0" y1="0" x2="1" y2="1"><stop offset="0" stop-color="#6366F1"/><stop offset="1" stop-color="#1D4ED8"/></linearGradient></defs>
<rect width="1200" height="800" fill="#FFFFFF"/>
<rect x="0" y="0" width="1200" height="84" fill="#FFFFFF"/>
<line x1="0" y1="84" x2="1200" y2="84" stroke="#E2E8F0" stroke-width="2"/>

  <g transform="translate(20,17) scale(0.048828)">
    <rect width="1024" height="1024" rx="230" fill="url(#logoGrad)"/>
    <rect x="360" y="300" width="80" height="424" rx="16" fill="#FFFFFF"/>
    <path d="M440,512 L660,300 L560,300 L440,430 Z" fill="#FFFFFF"/>
    <path d="M440,512 L660,724 L560,724 L440,590 Z" fill="#FFFFFF"/>
    <circle cx="700" cy="512" r="34" fill="#FBBF24"/>
  </g>
<text x="82" y="48" fill="#0F172A" font-size="24" font-weight="bold">Kasirin</text>
<text x="1176" y="36" text-anchor="end" fill="#0F172A" font-size="16" font-weight="bold">Admin: Sarah</text>
<text x="1176" y="58" text-anchor="end" fill="#94A3B8" font-size="14">22 Jul 2026, 14:30</text>
<rect x="0" y="84" width="240" height="716" fill="#FAFAFB"/>
<line x1="240" y1="84" x2="240" y2="800" stroke="#E2E8F0" stroke-width="2"/>
<text x="24" y="126" fill="#94A3B8" font-size="12" font-weight="bold">KATEGORI</text>
<rect x="0" y="148" width="240" height="52" fill="#EEF2FF"/>
<rect x="0" y="148" width="5" height="52" fill="#4F46E5"/>
<text x="24" y="180" fill="#4F46E5" font-size="15" font-weight="bold">Semua Produk</text>
<text x="216" y="180" text-anchor="end" fill="#94A3B8" font-size="14">32</text>
<text x="24" y="232" fill="#334155" font-size="15" font-weight="bold">Makanan</text>
<text x="216" y="232" text-anchor="end" fill="#94A3B8" font-size="14">14</text>
<text x="24" y="284" fill="#334155" font-size="15" font-weight="bold">Minuman</text>
<text x="216" y="284" text-anchor="end" fill="#94A3B8" font-size="14">12</text>
<text x="24" y="336" fill="#334155" font-size="15" font-weight="bold">Snack</text>
<text x="216" y="336" text-anchor="end" fill="#94A3B8" font-size="14">6</text>
<rect x="24" y="376" width="192" height="52" rx="14" fill="#4F46E5"/>
<text x="120.0" y="408" text-anchor="middle" fill="#FFFFFF" font-size="15" font-weight="bold">+ Tambah Produk</text>
<text x="264" y="132" fill="#0F172A" font-size="28" font-weight="bold">Manajemen Produk</text>
<text x="264" y="156" fill="#94A3B8" font-size="15">Menampilkan semua produk</text>
<rect x="264" y="182" width="912" height="46" rx="23" fill="#F1F5F9"/>
<circle cx="290" cy="205" r="8" fill="none" stroke="#94A3B8" stroke-width="2.5"/>
<text x="312" y="210" fill="#94A3B8" font-size="15">Cari nama produk atau SKU...</text>
<rect x="264" y="250" width="912" height="66" rx="14" fill="#FFFFFF" stroke="#F1F5F9" stroke-width="2"/>
<rect x="276" y="261" width="44" height="44" rx="10" fill="#FDE68A"/>
<text x="334" y="277" fill="#0F172A" font-size="15" font-weight="bold">Kopi Susu Aren</text>
<text x="334" y="296" fill="#94A3B8" font-size="12">SKU-0231</text>
<rect x="594" y="269" width="65" height="24" rx="12" fill="#DBEAFE"/>
<text x="626.5" y="285" text-anchor="middle" fill="#1D4ED8" font-size="12" font-weight="bold">Minuman</text>
<text x="764" y="287" fill="#0F172A" font-size="15" font-weight="bold">Rp 18.000</text>
<rect x="874" y="269" width="70" height="24" rx="12" fill="#DCFCE7"/>
<text x="909" y="285" text-anchor="middle" fill="#16A34A" font-size="12" font-weight="bold">24 pcs</text>
<circle cx="1122" cy="283" r="17" fill="#EEF2FF"/>
<path d="M1115,290 L1129,276 M1125,272 L1133,280 L1119,294 L1111,286 Z" fill="none" stroke="#4F46E5" stroke-width="2" stroke-linejoin="round"/>
<circle cx="1168" cy="283" r="17" fill="#FEF2F2"/>

    <line x1="1159" y1="275" x2="1177" y2="275" stroke="#EF4444" stroke-width="2.2" stroke-linecap="round"/>
    <path d="M1162,275 L1163,293 Q1163,295 1165,295 L1171,295 Q1173,295 1173,293 L1174,275" fill="none" stroke="#EF4444" stroke-width="2.2" stroke-linejoin="round"/>
    <line x1="1165" y1="275" x2="1166" y2="271" stroke="#EF4444" stroke-width="2.2"/>
    <line x1="1171" y1="275" x2="1170" y2="271" stroke="#EF4444" stroke-width="2.2"/>
    
<rect x="264" y="322" width="912" height="66" rx="14" fill="#FFFFFF" stroke="#F1F5F9" stroke-width="2"/>
<rect x="276" y="333" width="44" height="44" rx="10" fill="#FCA5A5"/>
<text x="334" y="349" fill="#0F172A" font-size="15" font-weight="bold">Roti Bakar Coklat</text>
<text x="334" y="368" fill="#94A3B8" font-size="12">SKU-0187</text>
<rect x="594" y="341" width="65" height="24" rx="12" fill="#FFEDD5"/>
<text x="626.5" y="357" text-anchor="middle" fill="#C2410C" font-size="12" font-weight="bold">Makanan</text>
<text x="764" y="359" fill="#0F172A" font-size="15" font-weight="bold">Rp 15.000</text>
<rect x="874" y="341" width="70" height="24" rx="12" fill="#DCFCE7"/>
<text x="909" y="357" text-anchor="middle" fill="#16A34A" font-size="12" font-weight="bold">12 pcs</text>
<circle cx="1122" cy="355" r="17" fill="#EEF2FF"/>
<path d="M1115,362 L1129,348 M1125,344 L1133,352 L1119,366 L1111,358 Z" fill="none" stroke="#4F46E5" stroke-width="2" stroke-linejoin="round"/>
<circle cx="1168" cy="355" r="17" fill="#FEF2F2"/>

    <line x1="1159" y1="347" x2="1177" y2="347" stroke="#EF4444" stroke-width="2.2" stroke-linecap="round"/>
    <path d="M1162,347 L1163,365 Q1163,367 1165,367 L1171,367 Q1173,367 1173,365 L1174,347" fill="none" stroke="#EF4444" stroke-width="2.2" stroke-linejoin="round"/>
    <line x1="1165" y1="347" x2="1166" y2="343" stroke="#EF4444" stroke-width="2.2"/>
    <line x1="1171" y1="347" x2="1170" y2="343" stroke="#EF4444" stroke-width="2.2"/>
    
<rect x="264" y="394" width="912" height="66" rx="14" fill="#FFFFFF" stroke="#F1F5F9" stroke-width="2"/>
<rect x="276" y="405" width="44" height="44" rx="10" fill="#93C5FD"/>
<text x="334" y="421" fill="#0F172A" font-size="15" font-weight="bold">Es Teh Manis</text>
<text x="334" y="440" fill="#94A3B8" font-size="12">SKU-0092</text>
<rect x="594" y="413" width="65" height="24" rx="12" fill="#DBEAFE"/>
<text x="626.5" y="429" text-anchor="middle" fill="#1D4ED8" font-size="12" font-weight="bold">Minuman</text>
<text x="764" y="431" fill="#0F172A" font-size="15" font-weight="bold">Rp 8.000</text>
<rect x="874" y="413" width="70" height="24" rx="12" fill="#DCFCE7"/>
<text x="909" y="429" text-anchor="middle" fill="#16A34A" font-size="12" font-weight="bold">40 pcs</text>
<circle cx="1122" cy="427" r="17" fill="#EEF2FF"/>
<path d="M1115,434 L1129,420 M1125,416 L1133,424 L1119,438 L1111,430 Z" fill="none" stroke="#4F46E5" stroke-width="2" stroke-linejoin="round"/>
<circle cx="1168" cy="427" r="17" fill="#FEF2F2"/>

    <line x1="1159" y1="419" x2="1177" y2="419" stroke="#EF4444" stroke-width="2.2" stroke-linecap="round"/>
    <path d="M1162,419 L1163,437 Q1163,439 1165,439 L1171,439 Q1173,439 1173,437 L1174,419" fill="none" stroke="#EF4444" stroke-width="2.2" stroke-linejoin="round"/>
    <line x1="1165" y1="419" x2="1166" y2="415" stroke="#EF4444" stroke-width="2.2"/>
    <line x1="1171" y1="419" x2="1170" y2="415" stroke="#EF4444" stroke-width="2.2"/>
    
<rect x="264" y="466" width="912" height="66" rx="14" fill="#FFFFFF" stroke="#F1F5F9" stroke-width="2"/>
<rect x="276" y="477" width="44" height="44" rx="10" fill="#FDBA74"/>
<text x="334" y="493" fill="#0F172A" font-size="15" font-weight="bold">Nasi Goreng Spesial</text>
<text x="334" y="512" fill="#94A3B8" font-size="12">SKU-0311</text>
<rect x="594" y="485" width="65" height="24" rx="12" fill="#FFEDD5"/>
<text x="626.5" y="501" text-anchor="middle" fill="#C2410C" font-size="12" font-weight="bold">Makanan</text>
<text x="764" y="503" fill="#0F172A" font-size="15" font-weight="bold">Rp 22.000</text>
<rect x="874" y="485" width="70" height="24" rx="12" fill="#FEE2E2"/>
<text x="909" y="501" text-anchor="middle" fill="#DC2626" font-size="12" font-weight="bold">8 pcs</text>
<circle cx="1122" cy="499" r="17" fill="#EEF2FF"/>
<path d="M1115,506 L1129,492 M1125,488 L1133,496 L1119,510 L1111,502 Z" fill="none" stroke="#4F46E5" stroke-width="2" stroke-linejoin="round"/>
<circle cx="1168" cy="499" r="17" fill="#FEF2F2"/>

    <line x1="1159" y1="491" x2="1177" y2="491" stroke="#EF4444" stroke-width="2.2" stroke-linecap="round"/>
    <path d="M1162,491 L1163,509 Q1163,511 1165,511 L1171,511 Q1173,511 1173,509 L1174,491" fill="none" stroke="#EF4444" stroke-width="2.2" stroke-linejoin="round"/>
    <line x1="1165" y1="491" x2="1166" y2="487" stroke="#EF4444" stroke-width="2.2"/>
    <line x1="1171" y1="491" x2="1170" y2="487" stroke="#EF4444" stroke-width="2.2"/>
    
<rect x="264" y="538" width="912" height="66" rx="14" fill="#FFFFFF" stroke="#F1F5F9" stroke-width="2"/>
<rect x="276" y="549" width="44" height="44" rx="10" fill="#FCD34D"/>
<text x="334" y="565" fill="#0F172A" font-size="15" font-weight="bold">Ayam Geprek</text>
<text x="334" y="584" fill="#94A3B8" font-size="12">SKU-0298</text>
<rect x="594" y="557" width="65" height="24" rx="12" fill="#FFEDD5"/>
<text x="626.5" y="573" text-anchor="middle" fill="#C2410C" font-size="12" font-weight="bold">Makanan</text>
<text x="764" y="575" fill="#0F172A" font-size="15" font-weight="bold">Rp 20.000</text>
<rect x="874" y="557" width="70" height="24" rx="12" fill="#DCFCE7"/>
<text x="909" y="573" text-anchor="middle" fill="#16A34A" font-size="12" font-weight="bold">15 pcs</text>
<circle cx="1122" cy="571" r="17" fill="#EEF2FF"/>
<path d="M1115,578 L1129,564 M1125,560 L1133,568 L1119,582 L1111,574 Z" fill="none" stroke="#4F46E5" stroke-width="2" stroke-linejoin="round"/>
<circle cx="1168" cy="571" r="17" fill="#FEF2F2"/>

    <line x1="1159" y1="563" x2="1177" y2="563" stroke="#EF4444" stroke-width="2.2" stroke-linecap="round"/>
    <path d="M1162,563 L1163,581 Q1163,583 1165,583 L1171,583 Q1173,583 1173,581 L1174,563" fill="none" stroke="#EF4444" stroke-width="2.2" stroke-linejoin="round"/>
    <line x1="1165" y1="563" x2="1166" y2="559" stroke="#EF4444" stroke-width="2.2"/>
    <line x1="1171" y1="563" x2="1170" y2="559" stroke="#EF4444" stroke-width="2.2"/>
    
<rect x="264" y="610" width="912" height="66" rx="14" fill="#FFFFFF" stroke="#F1F5F9" stroke-width="2"/>
<rect x="276" y="621" width="44" height="44" rx="10" fill="#FDA4AF"/>
<text x="334" y="637" fill="#0F172A" font-size="15" font-weight="bold">Mie Ayam Bakso</text>
<text x="334" y="656" fill="#94A3B8" font-size="12">SKU-0276</text>
<rect x="594" y="629" width="65" height="24" rx="12" fill="#FFEDD5"/>
<text x="626.5" y="645" text-anchor="middle" fill="#C2410C" font-size="12" font-weight="bold">Makanan</text>
<text x="764" y="647" fill="#0F172A" font-size="15" font-weight="bold">Rp 17.000</text>
<rect x="874" y="629" width="70" height="24" rx="12" fill="#FEE2E2"/>
<text x="909" y="645" text-anchor="middle" fill="#DC2626" font-size="12" font-weight="bold">6 pcs</text>
<circle cx="1122" cy="643" r="17" fill="#EEF2FF"/>
<path d="M1115,650 L1129,636 M1125,632 L1133,640 L1119,654 L1111,646 Z" fill="none" stroke="#4F46E5" stroke-width="2" stroke-linejoin="round"/>
<circle cx="1168" cy="643" r="17" fill="#FEF2F2"/>

    <line x1="1159" y1="635" x2="1177" y2="635" stroke="#EF4444" stroke-width="2.2" stroke-linecap="round"/>
    <path d="M1162,635 L1163,653 Q1163,655 1165,655 L1171,655 Q1173,655 1173,653 L1174,635" fill="none" stroke="#EF4444" stroke-width="2.2" stroke-linejoin="round"/>
    <line x1="1165" y1="635" x2="1166" y2="631" stroke="#EF4444" stroke-width="2.2"/>
    <line x1="1171" y1="635" x2="1170" y2="631" stroke="#EF4444" stroke-width="2.2"/>
    
<rect x="264" y="682" width="912" height="66" rx="14" fill="#FFFFFF" stroke="#F1F5F9" stroke-width="2"/>
<rect x="276" y="693" width="44" height="44" rx="10" fill="#86EFAC"/>
<text x="334" y="709" fill="#0F172A" font-size="15" font-weight="bold">Jus Alpukat</text>
<text x="334" y="728" fill="#94A3B8" font-size="12">SKU-0154</text>
<rect x="594" y="701" width="65" height="24" rx="12" fill="#DBEAFE"/>
<text x="626.5" y="717" text-anchor="middle" fill="#1D4ED8" font-size="12" font-weight="bold">Minuman</text>
<text x="764" y="719" fill="#0F172A" font-size="15" font-weight="bold">Rp 14.000</text>
<rect x="874" y="701" width="70" height="24" rx="12" fill="#DCFCE7"/>
<text x="909" y="717" text-anchor="middle" fill="#16A34A" font-size="12" font-weight="bold">18 pcs</text>
<circle cx="1122" cy="715" r="17" fill="#EEF2FF"/>
<path d="M1115,722 L1129,708 M1125,704 L1133,712 L1119,726 L1111,718 Z" fill="none" stroke="#4F46E5" stroke-width="2" stroke-linejoin="round"/>
<circle cx="1168" cy="715" r="17" fill="#FEF2F2"/>

    <line x1="1159" y1="707" x2="1177" y2="707" stroke="#EF4444" stroke-width="2.2" stroke-linecap="round"/>
    <path d="M1162,707 L1163,725 Q1163,727 1165,727 L1171,727 Q1173,727 1173,725 L1174,707" fill="none" stroke="#EF4444" stroke-width="2.2" stroke-linejoin="round"/>
    <line x1="1165" y1="707" x2="1166" y2="703" stroke="#EF4444" stroke-width="2.2"/>
    <line x1="1171" y1="707" x2="1170" y2="703" stroke="#EF4444" stroke-width="2.2"/>
    
<rect x="264" y="754" width="912" height="66" rx="14" fill="#FFFFFF" stroke="#F1F5F9" stroke-width="2"/>
<rect x="276" y="765" width="44" height="44" rx="10" fill="#F9A8D4"/>
<text x="334" y="781" fill="#0F172A" font-size="15" font-weight="bold">Donat Gula</text>
<text x="334" y="800" fill="#94A3B8" font-size="12">SKU-0403</text>
<rect x="594" y="773" width="51" height="24" rx="12" fill="#FCE7F3"/>
<text x="619.5" y="789" text-anchor="middle" fill="#BE185D" font-size="12" font-weight="bold">Snack</text>
<text x="764" y="791" fill="#0F172A" font-size="15" font-weight="bold">Rp 6.000</text>
<rect x="874" y="773" width="70" height="24" rx="12" fill="#DCFCE7"/>
<text x="909" y="789" text-anchor="middle" fill="#16A34A" font-size="12" font-weight="bold">30 pcs</text>
<circle cx="1122" cy="787" r="17" fill="#EEF2FF"/>
<path d="M1115,794 L1129,780 M1125,776 L1133,784 L1119,798 L1111,790 Z" fill="none" stroke="#4F46E5" stroke-width="2" stroke-linejoin="round"/>
<circle cx="1168" cy="787" r="17" fill="#FEF2F2"/>

    <line x1="1159" y1="779" x2="1177" y2="779" stroke="#EF4444" stroke-width="2.2" stroke-linecap="round"/>
    <path d="M1162,779 L1163,797 Q1163,799 1165,799 L1171,799 Q1173,799 1173,797 L1174,779" fill="none" stroke="#EF4444" stroke-width="2.2" stroke-linejoin="round"/>
    <line x1="1165" y1="779" x2="1166" y2="775" stroke="#EF4444" stroke-width="2.2"/>
    <line x1="1171" y1="779" x2="1170" y2="775" stroke="#EF4444" stroke-width="2.2"/>
    
</svg>