<svg width="1200" height="900" viewBox="0 0 1200 900" xmlns="http://www.w3.org/2000/svg" font-family="Arial, sans-serif">
<defs><linearGradient id="logoGrad" x1="0" y1="0" x2="1" y2="1"><stop offset="0" stop-color="#6366F1"/><stop offset="1" stop-color="#1D4ED8"/></linearGradient><linearGradient id="bgTop" x1="0" y1="0" x2="1" y2="1"><stop offset="0" stop-color="#EEF2FF"/><stop offset="1" stop-color="#F8FAFC"/></linearGradient></defs>
<rect width="1200" height="900" fill="url(#bgTop)"/>
<rect x="0" y="0" width="1200" height="84" fill="#FFFFFF"/>
<line x1="0" y1="84" x2="1200" y2="84" stroke="#E2E8F0" stroke-width="2"/>

  <g transform="translate(20,17) scale(0.048828)">
    <rect width="1024" height="1024" rx="230" fill="url(#logoGrad)"/>
    <rect x="360" y="300" width="80" height="424" rx="16" fill="#FFFFFF"/>
    <path d="M440,512 L660,300 L560,300 L440,430 Z" fill="#FFFFFF"/>
    <path d="M440,512 L660,724 L560,724 L440,590 Z" fill="#FFFFFF"/>
    <circle cx="700" cy="512" r="34" fill="#FBBF24"/>
  </g>
<text x="82" y="48" fill="#0F172A" font-size="24" font-weight="bold">Kasirin</text>
<text x="1176" y="36" text-anchor="end" fill="#0F172A" font-size="16" font-weight="bold">Admin: Sarah</text>
<text x="1176" y="58" text-anchor="end" fill="#94A3B8" font-size="14">22 Jul 2026, 14:35</text>
<rect x="360" y="130" width="480" height="700" rx="28" fill="#FFFFFF" stroke="#E2E8F0" stroke-width="2"/>
<circle cx="600" cy="200" r="44" fill="#DCFCE7"/><path d="M580.2,200 L595.6,215.4 L622.0,184.6" fill="none" stroke="#16A34A" stroke-width="6.2" stroke-linecap="round" stroke-linejoin="round"/>
<text x="600" y="280" text-anchor="middle" fill="#0F172A" font-size="24" font-weight="bold">Pembayaran Berhasil!</text>
<text x="600" y="308" text-anchor="middle" fill="#94A3B8" font-size="14">#TRX-0231 &#183; 22 Jul 2026, 14:35</text>
<rect x="400" y="336" width="400" height="76" rx="16" fill="#EEF2FF"/>
<text x="600" y="366" text-anchor="middle" fill="#4F46E5" font-size="14" font-weight="bold">KEMBALIAN</text>
<text x="600" y="398" text-anchor="middle" fill="#4338CA" font-size="30" font-weight="bold">Rp 30.000</text>
<line x1="400" y1="450" x2="800" y2="450" stroke="#CBD5E1" stroke-width="1.5" stroke-dasharray="5,4"/>
<text x="400" y="480" fill="#0F172A" font-size="15" font-weight="bold">Kopi Susu Aren</text>
<text x="800" y="480" text-anchor="end" fill="#0F172A" font-size="14">Rp 36.000</text>
<text x="400" y="500" fill="#94A3B8" font-size="13">2 x Rp 18.000</text>
<text x="400" y="526" fill="#0F172A" font-size="15" font-weight="bold">Roti Bakar Coklat</text>
<text x="800" y="526" text-anchor="end" fill="#0F172A" font-size="14">Rp 15.000</text>
<text x="400" y="546" fill="#94A3B8" font-size="13">1 x Rp 15.000</text>
<text x="400" y="572" fill="#0F172A" font-size="15" font-weight="bold">Es Teh Manis</text>
<text x="800" y="572" text-anchor="end" fill="#0F172A" font-size="14">Rp 24.000</text>
<text x="400" y="592" fill="#94A3B8" font-size="13">3 x Rp 8.000</text>
<line x1="400" y1="618" x2="800" y2="618" stroke="#CBD5E1" stroke-width="1.5" stroke-dasharray="5,4"/>
<text x="400" y="646" fill="#64748B" font-size="14" font-weight="normal">Subtotal</text>
<text x="800" y="646" text-anchor="end" fill="#0F172A" font-size="14" font-weight="normal">Rp 75.000</text>
<text x="400" y="672" fill="#64748B" font-size="14" font-weight="normal">Diskon</text>
<text x="800" y="672" text-anchor="end" fill="#0F172A" font-size="14" font-weight="normal">-Rp 5.000</text>
<text x="400" y="698" fill="#4F46E5" font-size="16" font-weight="bold">Total</text>
<text x="800" y="698" text-anchor="end" fill="#4F46E5" font-size="16" font-weight="bold">Rp 70.000</text>
<text x="400" y="728" fill="#64748B" font-size="14" font-weight="normal">Uang Bayar</text>
<text x="800" y="728" text-anchor="end" fill="#0F172A" font-size="14" font-weight="normal">Rp 100.000</text>
<rect x="400" y="768" width="400" height="58" rx="16" fill="#4F46E5"/>
<text x="600" y="805" text-anchor="middle" fill="#FFFFFF" font-size="17" font-weight="bold">Cetak Struk</text>
<rect x="400" y="838" width="400" height="58" rx="16" fill="none" stroke="#4F46E5" stroke-width="2.5"/>
<text x="600" y="875" text-anchor="middle" fill="#4F46E5" font-size="17" font-weight="bold">Tampilkan Struk Digital</text>
<text x="600" y="922" text-anchor="middle" fill="#94A3B8" font-size="15" font-weight="bold">Transaksi Baru</text>
</svg>