<svg width="1200" height="860" viewBox="0 0 1200 860" xmlns="http://www.w3.org/2000/svg" font-family="Arial, sans-serif">
<defs><linearGradient id="logoGrad" x1="0" y1="0" x2="1" y2="1"><stop offset="0" stop-color="#6366F1"/><stop offset="1" stop-color="#1D4ED8"/></linearGradient></defs>
<rect width="1200" height="860" fill="#F8FAFC"/>
<rect x="0" y="0" width="1200" height="84" fill="#FFFFFF"/>
<line x1="0" y1="84" x2="1200" y2="84" stroke="#E2E8F0" stroke-width="2"/>

  <g transform="translate(20,17) scale(0.048828)">
    <rect width="1024" height="1024" rx="230" fill="url(#logoGrad)"/>
    <rect x="360" y="300" width="80" height="424" rx="16" fill="#FFFFFF"/>
    <path d="M440,512 L660,300 L560,300 L440,430 Z" fill="#FFFFFF"/>
    <path d="M440,512 L660,724 L560,724 L440,590 Z" fill="#FFFFFF"/>
    <circle cx="700" cy="512" r="34" fill="#FBBF24"/>
  </g>
<text x="82" y="48" fill="#0F172A" font-size="24" font-weight="bold">Kasirin</text>
<text x="1176" y="36" text-anchor="end" fill="#0F172A" font-size="16" font-weight="bold">Admin: Sarah</text>
<text x="1176" y="58" text-anchor="end" fill="#94A3B8" font-size="14">22 Jul 2026, 14:35</text>
<text x="24" y="132" fill="#0F172A" font-size="28" font-weight="bold">Manajemen Pengguna</text>
<text x="24" y="156" fill="#94A3B8" font-size="15">Pilih pengguna untuk mengatur role</text>
<rect x="965" y="104" width="211" height="52" rx="14" fill="#4F46E5"/>
<text x="1070.5" y="137" text-anchor="middle" fill="#FFFFFF" font-size="17" font-weight="bold">+ Tambah Pengguna</text>
<rect x="24" y="182" width="420" height="654" rx="20" fill="#FFFFFF" stroke="#E2E8F0" stroke-width="2"/>
<circle cx="66" cy="242" r="22" fill="#C7D2FE"/>
<text x="66" y="249.7" text-anchor="middle" fill="#0F172A" font-size="18" font-weight="bold">SW</text>
<text x="98" y="236" fill="#0F172A" font-size="15" font-weight="bold">Sarah Wijaya</text>
<text x="98" y="256" fill="#94A3B8" font-size="12">sarah@kasirin.id</text>
<rect x="354" y="228" width="62" height="22" rx="11.0" fill="#EDE9FE"/>
<text x="385.0" y="242.96" text-anchor="middle" fill="#6D28D9" font-size="11" font-weight="bold">Admin</text>
<rect x="24" y="278" width="420" height="72" fill="#EEF2FF"/>
<rect x="24" y="278" width="4" height="72" fill="#4F46E5"/>
<circle cx="66" cy="314" r="22" fill="#FBCFE8"/>
<text x="66" y="321.7" text-anchor="middle" fill="#0F172A" font-size="18" font-weight="bold">RP</text>
<text x="98" y="308" fill="#0F172A" font-size="15" font-weight="bold">Rendi Pratama</text>
<text x="98" y="328" fill="#94A3B8" font-size="12">rendi@kasirin.id</text>
<rect x="354" y="300" width="62" height="22" rx="11.0" fill="#D1FAE5"/>
<text x="385.0" y="314.96" text-anchor="middle" fill="#047857" font-size="11" font-weight="bold">Kasir</text>
<circle cx="66" cy="386" r="22" fill="#FDE68A"/>
<text x="66" y="393.7" text-anchor="middle" fill="#0F172A" font-size="18" font-weight="bold">DA</text>
<text x="98" y="380" fill="#0F172A" font-size="15" font-weight="bold">Dewi Anggraini</text>
<text x="98" y="400" fill="#94A3B8" font-size="12">dewi@kasirin.id</text>
<rect x="354" y="372" width="62" height="22" rx="11.0" fill="#D1FAE5"/>
<text x="385.0" y="386.96" text-anchor="middle" fill="#047857" font-size="11" font-weight="bold">Kasir</text>
<circle cx="66" cy="458" r="22" fill="#A7F3D0"/>
<text x="66" y="465.7" text-anchor="middle" fill="#0F172A" font-size="18" font-weight="bold">BS</text>
<text x="98" y="452" fill="#0F172A" font-size="15" font-weight="bold">Budi Santoso</text>
<text x="98" y="472" fill="#94A3B8" font-size="12">budi@kasirin.id</text>
<rect x="354" y="444" width="62" height="22" rx="11.0" fill="#D1FAE5"/>
<text x="385.0" y="458.96" text-anchor="middle" fill="#047857" font-size="11" font-weight="bold">Kasir</text>
<circle cx="66" cy="530" r="22" fill="#FCA5A5"/>
<text x="66" y="537.7" text-anchor="middle" fill="#0F172A" font-size="18" font-weight="bold">MP</text>
<text x="98" y="524" fill="#0F172A" font-size="15" font-weight="bold">Maya Putri</text>
<text x="98" y="544" fill="#94A3B8" font-size="12">maya@kasirin.id</text>
<rect x="354" y="516" width="62" height="22" rx="11.0" fill="#D1FAE5"/>
<text x="385.0" y="530.96" text-anchor="middle" fill="#047857" font-size="11" font-weight="bold">Kasir</text>
<circle cx="66" cy="602" r="22" fill="#93C5FD"/>
<text x="66" y="609.7" text-anchor="middle" fill="#0F172A" font-size="18" font-weight="bold">AF</text>
<text x="98" y="596" fill="#0F172A" font-size="15" font-weight="bold">Andi Firmansyah</text>
<text x="98" y="616" fill="#94A3B8" font-size="12">andi@kasirin.id</text>
<rect x="354" y="588" width="62" height="22" rx="11.0" fill="#EDE9FE"/>
<text x="385.0" y="602.96" text-anchor="middle" fill="#6D28D9" font-size="11" font-weight="bold">Admin</text>
<circle cx="66" cy="674" r="22" fill="#FDBA74"/>
<text x="66" y="681.7" text-anchor="middle" fill="#0F172A" font-size="18" font-weight="bold">LM</text>
<text x="98" y="668" fill="#0F172A" font-size="15" font-weight="bold">Lina Marlina</text>
<text x="98" y="688" fill="#94A3B8" font-size="12">lina@kasirin.id</text>
<rect x="354" y="660" width="62" height="22" rx="11.0" fill="#D1FAE5"/>
<text x="385.0" y="674.96" text-anchor="middle" fill="#047857" font-size="11" font-weight="bold">Kasir</text>
<rect x="468" y="182" width="708" height="654" rx="20" fill="#FFFFFF" stroke="#E2E8F0" stroke-width="2"/>
<circle cx="524" cy="238" r="36" fill="#FBCFE8"/>
<text x="524" y="250.6" text-anchor="middle" fill="#0F172A" font-size="29" font-weight="bold">RP</text>
<text x="578" y="230" fill="#0F172A" font-size="20" font-weight="bold">Rendi Pratama</text>
<text x="578" y="252" fill="#94A3B8" font-size="14">rendi@kasirin.id</text>
<circle cx="578" cy="272" r="5" fill="#16A34A"/>
<text x="590" y="276" fill="#16A34A" font-size="13" font-weight="bold">Aktif</text>
<line x1="500" y1="300" x2="1144" y2="300" stroke="#F1F5F9" stroke-width="2"/>
<text x="500" y="336" fill="#334155" font-size="15" font-weight="bold">Role Pengguna</text>
<rect x="500" y="352" width="644" height="52" rx="16" fill="#F1F5F9"/>
<rect x="822.0" y="352" width="322.0" height="52" rx="16" fill="#4F46E5"/>
<text x="661.0" y="385" text-anchor="middle" fill="#334155" font-size="15" font-weight="bold">Admin</text>
<text x="983.0" y="385" text-anchor="middle" fill="#FFFFFF" font-size="15" font-weight="bold">Kasir</text>
<text x="500" y="442" fill="#334155" font-size="15" font-weight="bold">Hak Akses</text>
<rect x="500" y="456" width="22" height="22" rx="6" fill="#4F46E5"/>
<path d="M505,467 L509,472 L517,462" fill="none" stroke="#FFFFFF" stroke-width="2.5" stroke-linecap="round" stroke-linejoin="round"/>
<text x="534" y="472" fill="#0F172A" font-size="14">Kasir - Transaksi Penjualan</text>
<rect x="500" y="494" width="22" height="22" rx="6" fill="#4F46E5"/>
<path d="M505,505 L509,510 L517,500" fill="none" stroke="#FFFFFF" stroke-width="2.5" stroke-linecap="round" stroke-linejoin="round"/>
<text x="534" y="510" fill="#0F172A" font-size="14">Kasir - Lihat Produk</text>
<rect x="500" y="532" width="22" height="22" rx="6" fill="#E2E8F0"/>
<text x="534" y="548" fill="#94A3B8" font-size="14">Kelola Produk</text>
<rect x="500" y="570" width="22" height="22" rx="6" fill="#E2E8F0"/>
<text x="534" y="586" fill="#94A3B8" font-size="14">Kelola Pengguna</text>
<rect x="500" y="608" width="22" height="22" rx="6" fill="#E2E8F0"/>
<text x="534" y="624" fill="#94A3B8" font-size="14">Lihat Laporan Harian</text>
<rect x="500" y="690" width="644" height="54" rx="14" fill="#4F46E5"/>
<text x="822.0" y="724" text-anchor="middle" fill="#FFFFFF" font-size="16" font-weight="bold">Simpan Perubahan</text>
<rect x="500" y="758" width="644" height="50" rx="14" fill="none" stroke="#EF4444" stroke-width="2"/>
<text x="822.0" y="790" text-anchor="middle" fill="#EF4444" font-size="15" font-weight="bold">Nonaktifkan Pengguna</text>
</svg>